<?xml version="1.0" standalone="no"?>
<!DOCTYPE svg PUBLIC "-//W3C//DTD SVG 20010904//EN"
 "http://www.w3.org/TR/2001/REC-SVG-20010904/DTD/svg10.dtd">
<svg version="1.0" xmlns="http://www.w3.org/2000/svg"
 width="600.000000pt" height="559.000000pt" viewBox="0 0 600.000000 559.000000"
 preserveAspectRatio="xMidYMid meet">
<g transform="translate(0.000000,559.000000) scale(0.050000,-0.050000)"
fill="#000000" stroke="none">
<path d="M1100 11163 c-258 -86 -401 -279 -433 -583 l-12 -116 -83 -13 c-432
-64 -665 -473 -488 -855 148 -319 459 -463 979 -452 l292 6 848 -779 c956
-879 936 -853 703 -889 -1067 -167 -1512 -408 -1267 -687 132 -151 659 -319
1265 -404 103 -14 101 -11 126 -231 63 -545 339 -1130 762 -1613 l103 -117
-1148 -1040 c-1497 -1357 -1468 -1332 -1514 -1318 -83 26 -504 14 -628 -18
-763 -201 -830 -1150 -91 -1304 154 -32 134 -10 164 -178 64 -364 281 -547
626 -529 427 23 716 444 716 1046 l0 190 85 78 c47 43 513 466 1035 941 l950
862 13 -285 c36 -784 435 -1316 1117 -1488 218 -55 1276 -47 1486 11 684 188
1057 703 1091 1504 l13 319 420 -386 c231 -212 711 -653 1066 -979 l646 -593
6 -246 c16 -602 279 -975 712 -1011 336 -28 582 195 632 574 11 81 22 102 56
109 348 71 493 165 582 379 40 95 42 336 4 447 -131 381 -502 571 -1048 538
l-203 -12 -667 613 c-366 337 -949 873 -1296 1192 -346 319 -632 585 -635 592
-3 6 54 80 126 162 398 456 668 1062 724 1622 l15 148 140 26 c930 170 1290
317 1290 527 0 241 -363 394 -1339 561 l-149 26 549 501 c302 276 704 642 893
813 l343 310 117 -19 c402 -65 869 62 1046 285 320 404 151 877 -360 1006
l-110 28 -13 140 c-33 362 -245 565 -591 566 -483 0 -785 -380 -786 -990 l0
-200 -364 -330 c-844 -765 -1218 -1100 -1227 -1100 -6 0 -93 87 -195 193
-1217 1275 -3168 1289 -4400 31 l-196 -200 -414 382 c-228 210 -572 527 -766
706 l-352 324 -12 237 c-25 475 -182 783 -470 919 -120 57 -383 84 -484 51z
m443 -197 c242 -131 362 -403 365 -831 l2 -234 191 -176 c1103 -1015 1399
-1292 1399 -1308 0 -11 -37 -73 -82 -140 -45 -66 -129 -218 -187 -338 l-105
-218 -872 800 -873 800 -125 -20 c-613 -100 -1077 144 -1080 567 -1 252 161
398 504 455 l136 22 7 193 c18 431 351 629 720 428z m9479 -36 c129 -90 184
-217 194 -443 l9 -184 102 -14 c309 -42 531 -226 533 -440 3 -427 -499 -695
-1086 -581 l-136 26 -892 -809 -892 -809 -103 217 c-57 119 -143 279 -191 355
l-87 138 78 72 c44 40 414 377 824 749 l745 677 0 213 c1 452 158 773 428 872
143 52 371 33 474 -39z m-4562 -1442 c701 -113 1438 -563 1850 -1128 l94 -130
-2415 -5 c-1329 -3 -2420 -1 -2425 4 -17 17 250 340 399 482 681 652 1564 927
2497 777z m2620 -2178 c523 -84 1080 -245 1080 -314 0 -9 -1885 -16 -4190 -16
-2305 0 -4190 5 -4190 11 0 55 488 209 890 281 154 27 294 53 310 57 118 26
5927 8 6100 -19z m-6077 -620 c-6 -142 -8 -149 -50 -140 -23 5 -128 24 -233
41 -322 54 -753 171 -840 229 -20 13 161 20 550 20 l580 0 -7 -150z m5797
-149 c0 -2501 -3072 -3744 -4837 -1958 -553 561 -930 1570 -815 2184 l14 73
2819 0 2819 0 0 -299z m1273 276 c-129 -75 -1076 -306 -1106 -270 -1 2 -6 68
-10 148 l-8 145 580 -1 c429 0 571 -6 544 -22z m-1788 -2772 c177 -162 780
-716 1341 -1230 l1020 -936 132 16 c617 71 1007 -139 1037 -557 22 -299 -146
-467 -494 -496 l-151 -12 -15 -160 c-33 -338 -189 -520 -445 -520 -392 0 -661
430 -620 992 l13 172 -1161 1065 c-1051 965 -1162 1072 -1173 1138 -6 40 -33
190 -60 333 l-49 260 47 34 c26 19 91 71 145 115 54 44 101 80 105 80 4 1 152
-132 328 -294z m-4153 190 c59 -46 108 -91 108 -100 0 -9 -22 -126 -49 -260
-26 -135 -54 -302 -62 -371 l-14 -126 -722 -654 c-397 -360 -901 -817 -1120
-1017 l-398 -362 -5 -268 c-10 -557 -214 -865 -591 -892 -280 -21 -444 163
-473 529 l-12 144 -112 12 c-470 53 -658 342 -471 723 135 276 600 424 1024
326 l85 -19 525 477 c1518 1379 2145 1943 2161 1943 9 0 66 -38 126 -85z m538
-332 c143 -69 274 -133 290 -141 49 -26 51 -502 2 -502 -47 0 -537 246 -611
306 l-59 49 36 197 c39 207 47 234 69 224 7 -4 130 -63 273 -133z m2903 -98
c51 -272 71 -241 -260 -404 -413 -202 -373 -212 -373 89 l0 253 105 43 c58 24
186 85 285 136 99 51 185 94 192 96 6 1 29 -95 51 -213z m-2219 -145 c100 -22
259 -45 354 -53 l172 -13 0 -260 0 -260 -154 14 c-150 14 -538 85 -570 105
-21 12 -21 507 0 507 9 0 98 -18 198 -40z m1446 -220 c0 -143 -7 -260 -15
-260 -8 0 -104 -18 -212 -40 -109 -22 -273 -46 -365 -53 l-168 -13 0 260 0
260 185 13 c102 7 262 30 355 50 94 21 181 39 195 40 19 2 25 -61 25 -257z
m-2443 -48 c102 -65 411 -218 526 -261 61 -23 97 -50 105 -78 19 -73 13 -493
-7 -493 -47 0 -394 168 -560 270 l-181 112 0 84 c0 116 24 414 33 414 4 0 42
-22 84 -48z m3283 -251 l0 -259 -164 -92 c-185 -104 -463 -230 -508 -230 -24
0 -28 41 -24 262 l6 261 150 59 c83 32 231 103 330 156 99 54 187 99 195 100
8 1 15 -114 15 -257z m-2281 -141 c104 -21 264 -45 355 -52 l166 -14 0 -277 0
-278 -105 11 c-189 21 -363 50 -500 82 l-135 32 0 268 c0 147 7 268 15 268 8
0 100 -18 204 -40z m1441 -229 l0 -269 -75 -21 c-99 -28 -381 -75 -550 -91
l-135 -13 0 278 0 279 185 14 c102 7 262 30 355 50 94 20 181 38 195 39 19 2
25 -63 25 -266z m-2364 -120 c895 -515 2001 -541 2952 -68 271 135 266 135
237 -18 -88 -468 -442 -868 -895 -1011 -133 -42 -175 -44 -800 -44 l-660 0
-135 52 c-488 190 -875 682 -875 1112 0 82 -8 83 176 -23z"/>
<path d="M4502 6578 c-477 -93 -828 -602 -744 -1077 203 -1135 1852 -1003
1852 149 0 614 -515 1045 -1108 928z"/>
<path d="M7080 6578 c-645 -125 -972 -910 -602 -1445 537 -777 1712 -422 1712
517 0 608 -520 1043 -1110 928z"/>
<path d="M5790 4842 c-248 -114 -304 -417 -113 -612 214 -219 604 -86 638 217
33 295 -262 517 -525 395z"/>
</g>
</svg>
