<svg xmlns="http://www.w3.org/2000/svg" viewBox="0 0 18.79 26.03"><defs><style>.cls-1{fill:#fff;}</style></defs><g id="Layer_2" data-name="Layer 2"><g id="Layer_1-2" data-name="Layer 1"><path class="cls-1" d="M5.64.1a2.32,2.32,0,0,0-.42.77L5,1.47l-1.16,0a8.63,8.63,0,0,0-1.36,0A1,1,0,0,0,2,2.4c0,.29,0,.33-.52.55s-1,.65-1,.94a1.29,1.29,0,0,0,.23.54A1.36,1.36,0,0,1,1,4.9a1.89,1.89,0,0,1-.4.59c-.71.79-.74,1-.2,1.43.25.19.25.2.14.77a5.79,5.79,0,0,1-.21.85,6.13,6.13,0,0,0,.56,3.15,3.14,3.14,0,0,1,.34.88,8.74,8.74,0,0,0,.42,1.22c.46,1,.86,1.13,1,.44.1-.51.11-.52.54-.26a5.64,5.64,0,0,0,1.9.65c.6.09.77.14.77.25a4.63,4.63,0,0,1-.42.82,3.34,3.34,0,0,0-.42,1,3.53,3.53,0,0,1-.24.87c-.14.34-.35.94-.47,1.35-.2.7-.21.76-.07,1a1.44,1.44,0,0,0,.53.4c.49.21.89.16,1-.15,0-.12.09-.23.13-.23s.12-.12.19-.27a.42.42,0,0,0,0-.49,1.55,1.55,0,0,1,.41-1.76l.26-.27.07.45a1.39,1.39,0,0,1,0,.64,2.65,2.65,0,0,0-.15.57,4.52,4.52,0,0,1-.2.75c-.09.19-.21.48-.28.64-.2.46-.17.78.06.83s.2.11.16.45a1.14,1.14,0,0,0,0,.52,3.52,3.52,0,0,1,0,1c-.08.94-.15,1.06-1.08,1.66-.4.26-.6.45-.68.67-.16.46-.14.53.25.69a3.83,3.83,0,0,0,2.07-.1A4.44,4.44,0,0,0,8.29,25a2,2,0,0,0,0-.55,4.45,4.45,0,0,1,.28-2.3,1,1,0,0,0,.18-.49c0-.22,0-.23.38-.23s.37,0,.37.26a.62.62,0,0,0,.18.43A4.91,4.91,0,0,1,10,24.41c-.05.47,0,.52.23.73.8.69,3,1,3.52.5.23-.23-.05-.8-.56-1.08a8.1,8.1,0,0,1-.82-.57l-.41-.35-.06-.82a4.06,4.06,0,0,1,0-.93.71.71,0,0,0,0-.46c0-.28,0-.38.11-.47a1.16,1.16,0,0,0,.29-.48c.12-.34.12-.36-.19-.68a2.91,2.91,0,0,1-.63-1.95,2.53,2.53,0,0,1,0-.54s.14,0,.26.06.28.23.4.56a1.67,1.67,0,0,1,0,1.25.58.58,0,0,0,.14.53,1.25,1.25,0,0,1,.2.37c0,.19.47.3.78.18.5-.2.8-.46.8-.67a8.32,8.32,0,0,0-.71-2.15,2.82,2.82,0,0,1-.28-.86,4.27,4.27,0,0,0-.73-1.46,1,1,0,0,1-.14-.27,3.58,3.58,0,0,1,.91-.18,9.76,9.76,0,0,0,1.6-.34c.75-.25.85-.22.85.27s.29.34.59,0a7,7,0,0,0,.8-1.61.94.94,0,0,1,.19-.35A5.55,5.55,0,0,0,18,10.32a4.81,4.81,0,0,1,.18-.92,1.61,1.61,0,0,0,0-1.14,4.73,4.73,0,0,1-.2-1l-.06-.63.48-.5a3.34,3.34,0,0,0,.47-.58c0-.24-.5-.77-1.06-1.14L17.1,4l0-.5a2.69,2.69,0,0,0-.32-1.62c-.16-.2-.22-.2-1.64-.18l-1.49,0-.31-.53C12.94.43,12.56,0,12.3,0a3.2,3.2,0,0,0-1,.52c-.87.59-.84.59-1.7,0A4.19,4.19,0,0,0,9,.09C8.78,0,8.39.32,8.2.69,8.12.84,8,1,7.89,1A4,4,0,0,1,7.08.58C6,0,5.88-.1,5.64.1Z"/></g></g></svg>