<svg xmlns="http://www.w3.org/2000/svg" viewBox="0 0 34 19.96"><defs><style>.cls-1{fill:#fff;}</style></defs><g id="Layer_2" data-name="Layer 2"><g id="Layer_1-2" data-name="Layer 1"><path class="cls-1" d="M33.18,2.92,23.3.05a1.09,1.09,0,0,0-.69,0A.83.83,0,0,0,22.29,0H12a.7.7,0,0,0-.44.16h0a1.12,1.12,0,0,0-.86-.1L.82,2.92A1.14,1.14,0,0,0,0,4.33L4.35,19.15A1.13,1.13,0,0,0,5.44,20a1.1,1.1,0,0,0,.31,0l9.88-2.87a.84.84,0,0,0,.21-.11h2.32a.84.84,0,0,0,.21.11l9.88,2.87a1.1,1.1,0,0,0,.31,0,1.13,1.13,0,0,0,1.09-.82L34,4.33A1.14,1.14,0,0,0,33.18,2.92ZM5.54,19.19a.37.37,0,0,1-.29,0,.42.42,0,0,1-.18-.23L.77,4.12A.37.37,0,0,1,1,3.65L10.91.78l.1,0a.41.41,0,0,1,.19.05s0,0,.05,0V16.19a.75.75,0,0,0,.76.75h1.28ZM33.23,4.11l-4.3,14.82a.42.42,0,0,1-.18.23.37.37,0,0,1-.29,0l-7.75-2.25h1.58a.75.75,0,0,0,.76-.75V.77h0L33,3.65A.37.37,0,0,1,33.23,4.11Z"/></g></g></svg>